<svg xmlns="http://www.w3.org/2000/svg" xmlns:xlink="http://www.w3.org/1999/xlink" version="1.0" x="0px" y="0px" viewBox="0 0 50 50" enable-background="new 0 0 50 50" xml:space="preserve"><g><g><path d="M25,20.8c-1.5,0-14.3,0.1-14.3,4.5v19.6c0,3.3,7.4,4.2,11.6,4.4c0,0,0,0,0.1,0c0,0,0,0,0,0c1.3,0.1,2.2,0.1,2.6,0.1    c0.3,0,1.3,0,2.6-0.1c0,0,0,0,0,0c0,0,0,0,0.1,0c4.2-0.2,11.6-1.1,11.6-4.4V25.3C39.3,20.9,26.5,20.8,25,20.8z M15.9,46    c-1.5-0.4-2.5-0.8-2.7-1.2V28.1c0.8,0.3,1.7,0.6,2.7,0.9V46z M21.1,46.8c-1-0.1-1.9-0.2-2.7-0.3V29.4c0.9,0.1,1.9,0.2,2.7,0.3    V46.8z M26.4,46.9c-0.4,0-0.9,0-1.4,0c-0.5,0-0.9,0-1.4,0V29.8c0.7,0,1.1,0,1.4,0c0.2,0,0.7,0,1.4,0V46.9z M25,27.3    c-6.6,0-10.8-1.2-11.7-2c0.9-0.8,5.1-2,11.7-2c6.6,0,10.8,1.2,11.7,2C35.8,26.1,31.6,27.3,25,27.3z M31.6,46.5    c-0.8,0.1-1.7,0.2-2.7,0.3V29.6c0.9-0.1,1.8-0.2,2.7-0.3V46.5z M36.8,44.8c-0.3,0.3-1.2,0.8-2.7,1.2v-17c1-0.2,1.9-0.5,2.7-0.9    V44.8z"/><path d="M39.7,0.9c-0.5-0.5-1.3-0.5-1.8,0L27.5,11.4c-0.5,0-1.1,0.3-1.5,0.7c-0.3,0.3-0.6,0.7-0.7,1.2c-0.1,0.6,0,1.2,0.4,1.6    c0.3,0.3,0.7,0.5,1.2,0.5c0.6,0,1.2-0.3,1.6-0.7c0.4-0.4,0.7-1,0.7-1.5L39.7,2.7C40.2,2.2,40.2,1.4,39.7,0.9z"/><path d="M21.5,18.3c0.5,0.5,1.1,0.7,1.6,0.7c0.5,0,0.9-0.2,1.2-0.5c0.7-0.7,0.6-1.9-0.2-2.8c-0.4-0.4-1-0.7-1.5-0.7L12.1,4.6    c-0.5-0.5-1.3-0.5-1.8,0c-0.5,0.5-0.5,1.3,0,1.8l10.5,10.5C20.8,17.3,21,17.9,21.5,18.3z"/></g></g></svg>