<svg xmlns="http://www.w3.org/2000/svg" xmlns:xlink="http://www.w3.org/1999/xlink" version="1.0" x="0px" y="0px" viewBox="0 0 50 50" enable-background="new 0 0 50 50" xml:space="preserve"><g><path d="M16.4,38.1c2.6,0,4.7-2.1,4.7-4.7V20.7h14.7v8.4c-0.7-0.4-1.4-0.6-2.2-0.6c-2.6,0-4.7,2.1-4.7,4.7c0,2.6,2.1,4.7,4.7,4.7   s4.7-2.1,4.7-4.7V19.5v-6.3c0-0.7-0.6-1.2-1.2-1.2H19.9c-0.7,0-1.2,0.6-1.2,1.2v6.3v9.7c-0.7-0.4-1.4-0.6-2.2-0.6   c-2.6,0-4.7,2.1-4.7,4.7C11.7,36,13.8,38.1,16.4,38.1z M33.6,35.6c-1.2,0-2.2-1-2.2-2.2c0-1.2,1-2.2,2.2-2.2c1.2,0,2.2,1,2.2,2.2   C35.8,34.6,34.8,35.6,33.6,35.6z M35.8,18.2H21.1v-3.8h14.7V18.2z M16.4,31.1c1.2,0,2.2,1,2.2,2.2c0,1.2-1,2.2-2.2,2.2   s-2.2-1-2.2-2.2C14.2,32.1,15.2,31.1,16.4,31.1z"/></g></svg>