<svg xmlns="http://www.w3.org/2000/svg" xmlns:xlink="http://www.w3.org/1999/xlink" version="1.1" x="0px" y="0px" viewBox="0 0 100 100" enable-background="new 0 0 100 100" xml:space="preserve"><path d="M36.625,36.454h30.694l-7.799,7.799c-1.074,1.073-1.074,2.814,0,3.889c0.537,0.537,1.24,0.806,1.944,0.806  s1.407-0.269,1.944-0.806l12.493-12.492c0.127-0.127,0.241-0.267,0.342-0.416c0.025-0.039,0.043-0.083,0.066-0.123  c0.068-0.113,0.135-0.227,0.187-0.349c0.024-0.058,0.035-0.12,0.056-0.179c0.037-0.11,0.078-0.219,0.102-0.335  c0.036-0.178,0.055-0.359,0.055-0.544s-0.019-0.366-0.055-0.544c-0.023-0.116-0.064-0.225-0.102-0.335  c-0.021-0.059-0.031-0.121-0.056-0.179c-0.052-0.122-0.118-0.235-0.187-0.349c-0.023-0.04-0.041-0.084-0.066-0.123  c-0.101-0.149-0.215-0.289-0.342-0.416L63.411,19.268c-1.074-1.074-2.814-1.074-3.889,0c-1.074,1.073-1.074,2.814,0,3.889  l7.797,7.798H36.625c-10.109,0-18.334,8.225-18.334,18.334c0,1.519,1.231,2.75,2.75,2.75s2.75-1.231,2.75-2.75  C23.791,42.211,29.548,36.454,36.625,36.454z M78.959,47.962c-1.519,0-2.75,1.231-2.75,2.75c0,7.077-5.757,12.834-12.834,12.834  H32.681l7.799-7.799c1.074-1.073,1.074-2.814,0-3.889s-2.814-1.074-3.889,0L24.098,64.351c-0.127,0.127-0.241,0.267-0.342,0.416  c-0.024,0.038-0.041,0.08-0.063,0.118c-0.069,0.114-0.138,0.229-0.189,0.354c-0.023,0.057-0.034,0.118-0.055,0.176  c-0.037,0.111-0.079,0.221-0.103,0.338c-0.036,0.178-0.055,0.359-0.055,0.544s0.019,0.366,0.055,0.544  c0.023,0.117,0.065,0.227,0.103,0.338c0.021,0.058,0.031,0.119,0.055,0.176c0.052,0.124,0.12,0.239,0.189,0.354  c0.022,0.038,0.039,0.08,0.063,0.118c0.101,0.149,0.215,0.289,0.342,0.416l12.491,12.491c0.537,0.537,1.24,0.806,1.944,0.806  s1.407-0.269,1.944-0.806c1.074-1.073,1.074-2.814,0-3.889l-7.797-7.798h30.694c10.109,0,18.334-8.225,18.334-18.334  C81.709,49.193,80.478,47.962,78.959,47.962z"/></svg>